<svg xmlns="http://www.w3.org/2000/svg" viewBox="0 0 400 300" fill="none">
  <!-- Background gradient -->
  <defs>
    <linearGradient id="bgGradient" x1="0%" y1="0%" x2="100%" y2="100%">
      <stop offset="0%" style="stop-color:#1e293b;stop-opacity:0.1" />
      <stop offset="100%" style="stop-color:#0f172a;stop-opacity:0.2" />
    </linearGradient>
    <linearGradient id="laptopGradient" x1="0%" y1="0%" x2="100%" y2="100%">
      <stop offset="0%" style="stop-color:#60a5fa;stop-opacity:0.8" />
      <stop offset="100%" style="stop-color:#3b82f6;stop-opacity:0.9" />
    </linearGradient>
    <linearGradient id="documentGradient" x1="0%" y1="0%" x2="100%" y2="100%">
      <stop offset="0%" style="stop-color:#f8fafc;stop-opacity:0.9" />
      <stop offset="100%" style="stop-color:#e2e8f0;stop-opacity:0.95" />
    </linearGradient>
    <filter id="glow">
      <feGaussianBlur stdDeviation="3" result="coloredBlur"/>
      <feMerge> 
        <feMergeNode in="coloredBlur"/>
        <feMergeNode in="SourceGraphic"/>
      </feMerge>
    </filter>
  </defs>
  
  <!-- Background -->
  <rect width="400" height="300" fill="url(#bgGradient)" rx="12"/>
  
  <!-- Floating elements for depth -->
  <circle cx="50" cy="80" r="3" fill="#60a5fa" opacity="0.3"/>
  <circle cx="350" cy="60" r="2" fill="#3b82f6" opacity="0.4"/>
  <circle cx="80" cy="250" r="2.5" fill="#60a5fa" opacity="0.2"/>
  <circle cx="320" cy="240" r="1.5" fill="#3b82f6" opacity="0.3"/>
  
  <!-- Laptop base -->
  <rect x="120" y="180" width="160" height="100" rx="8" fill="url(#laptopGradient)" filter="url(#glow)"/>
  <rect x="130" y="190" width="140" height="80" rx="4" fill="#1e293b"/>
  
  <!-- Laptop screen -->
  <rect x="100" y="120" width="200" height="120" rx="12" fill="url(#laptopGradient)" filter="url(#glow)"/>
  <rect x="110" y="130" width="180" height="100" rx="6" fill="#0f172a"/>
  
  <!-- Screen content (resume preview) -->
  <rect x="120" y="140" width="160" height="80" rx="4" fill="url(#documentGradient)"/>
  <rect x="130" y="150" width="140" height="4" rx="2" fill="#60a5fa" opacity="0.8"/>
  <rect x="130" y="160" width="100" height="3" rx="1.5" fill="#64748b" opacity="0.6"/>
  <rect x="130" y="168" width="80" height="3" rx="1.5" fill="#64748b" opacity="0.6"/>
  <rect x="130" y="176" width="120" height="3" rx="1.5" fill="#64748b" opacity="0.6"/>
  <rect x="130" y="184" width="90" height="3" rx="1.5" fill="#64748b" opacity="0.6"/>
  <rect x="130" y="192" width="110" height="3" rx="1.5" fill="#64748b" opacity="0.6"/>
  <rect x="130" y="200" width="70" height="3" rx="1.5" fill="#64748b" opacity="0.6"/>
  
  <!-- Documents floating around -->
  <g transform="translate(50, 50)">
    <rect x="0" y="0" width="40" height="50" rx="4" fill="url(#documentGradient)" opacity="0.9"/>
    <rect x="5" y="8" width="30" height="2" rx="1" fill="#60a5fa" opacity="0.7"/>
    <rect x="5" y="14" width="25" height="1.5" rx="0.75" fill="#64748b" opacity="0.5"/>
    <rect x="5" y="19" width="28" height="1.5" rx="0.75" fill="#64748b" opacity="0.5"/>
    <rect x="5" y="24" width="22" height="1.5" rx="0.75" fill="#64748b" opacity="0.5"/>
  </g>
  
  <g transform="translate(310, 70)">
    <rect x="0" y="0" width="35" height="45" rx="3" fill="url(#documentGradient)" opacity="0.8"/>
    <rect x="4" y="6" width="27" height="2" rx="1" fill="#60a5fa" opacity="0.6"/>
    <rect x="4" y="12" width="20" height="1.5" rx="0.75" fill="#64748b" opacity="0.4"/>
    <rect x="4" y="17" width="24" height="1.5" rx="0.75" fill="#64748b" opacity="0.4"/>
  </g>
  
  <!-- Person silhouette (simplified) -->
  <g transform="translate(200, 100)">
    <!-- Head -->
    <circle cx="0" cy="0" r="12" fill="#e2e8f0" opacity="0.8"/>
    <!-- Body -->
    <rect x="-8" y="12" width="16" height="25" rx="8" fill="#cbd5e1" opacity="0.7"/>
    <!-- Arms -->
    <ellipse cx="-15" cy="20" rx="6" ry="15" fill="#cbd5e1" opacity="0.7" transform="rotate(-20 -15 20)"/>
    <ellipse cx="15" cy="20" rx="6" ry="15" fill="#cbd5e1" opacity="0.7" transform="rotate(20 15 20)"/>
  </g>
  
  <!-- Decorative elements -->
  <g opacity="0.3">
    <path d="M80 120 Q90 110 100 120 Q90 130 80 120" fill="#60a5fa"/>
    <path d="M320 180 Q330 170 340 180 Q330 190 320 180" fill="#3b82f6"/>
  </g>
  
  <!-- Success checkmarks floating -->
  <g transform="translate(60, 200)" opacity="0.6">
    <circle cx="0" cy="0" r="8" fill="#10b981"/>
    <path d="M-3 -1 L-1 1 L3 -3" stroke="#ffffff" stroke-width="2" fill="none" stroke-linecap="round"/>
  </g>
  
  <g transform="translate(340, 150)" opacity="0.5">
    <circle cx="0" cy="0" r="6" fill="#10b981"/>
    <path d="M-2 -1 L-1 0 L2 -2" stroke="#ffffff" stroke-width="1.5" fill="none" stroke-linecap="round"/>
  </g>
  
  <!-- Sparkle effects -->
  <g opacity="0.4">
    <path d="M150 80 L152 84 L156 84 L153 87 L154 91 L150 88 L146 91 L147 87 L144 84 L148 84 Z" fill="#60a5fa"/>
    <path d="M250 60 L251 62 L253 62 L252 63 L252 65 L250 64 L248 65 L248 63 L247 62 L249 62 Z" fill="#3b82f6"/>
  </g>
</svg>


